<svg width="64" height="64" viewBox="0 0 64 64" fill="none" xmlns="http://www.w3.org/2000/svg">
<g clip-path="url(#clip0_24755_43685)">
<path fill-rule="evenodd" clip-rule="evenodd" d="M32 64C49.6731 64 64 49.6731 64 32C64 14.3269 49.6731 0 32 0C14.3269 0 0 14.3269 0 32C0 49.6731 14.3269 64 32 64ZM18.6667 27.9999C18.6667 34.6199 24.0533 39.9999 30.6667 39.9999C37.28 39.9999 42.6667 34.6199 42.6667 27.9999C42.6667 21.3799 37.28 15.9999 30.6667 15.9999C24.0533 15.9999 18.6667 21.3799 18.6667 27.9999ZM22.6667 27.9999C22.6667 23.5866 26.2533 19.9999 30.6667 19.9999C35.08 19.9999 38.6667 23.5866 38.6667 27.9999C38.6667 32.4133 35.08 35.9999 30.6667 35.9999C26.2533 35.9999 22.6667 32.4133 22.6667 27.9999ZM42.08 43.4133L34.08 51.4133C33.6933 51.8066 33.18 51.9999 32.6667 51.9999C32.1533 51.9999 31.6467 51.8066 31.2533 51.4133C30.4733 50.6333 30.4733 49.3666 31.2533 48.5866L39.2533 40.5866C40.0333 39.8066 41.3 39.8066 42.08 40.5866C42.86 41.3666 42.86 42.6333 42.08 43.4133ZM42.2667 17.9999C42.2667 16.6799 43.3467 15.5999 44.6667 15.5999C45.9867 15.5999 47.0667 16.6799 47.0667 17.9999C47.0667 19.3199 45.9867 20.3999 44.6667 20.3999C43.3467 20.3999 42.2667 19.3199 42.2667 17.9999Z" fill="white"/>
</g>
<defs>
<clipPath id="clip0_24755_43685">
<rect width="64" height="64" rx="32" fill="white"/>
</clipPath>
</defs>
</svg>
